<svg width="60" height="60" viewBox="0 0 60 60" fill="none" xmlns="http://www.w3.org/2000/svg">
<path d="M16.2758 44C14.3229 44 12.6376 43.7296 11.2197 43.1888C9.80191 42.621 8.62484 41.8503 7.68854 40.8769C6.77898 39.8765 6.09682 38.7002 5.64204 37.3482C5.21401 35.9692 5 34.455 5 32.8056V15.3245H11.2599V32.2783C11.2599 33.414 11.3803 34.3874 11.621 35.1986C11.8885 35.9827 12.2363 36.6317 12.6643 37.1455C13.1191 37.6322 13.6541 37.9837 14.2694 38.2C14.9115 38.4163 15.607 38.5245 16.3561 38.5245C17.8809 38.5245 19.1115 38.0513 20.0478 37.1049C21.0108 36.1585 21.4924 34.5496 21.4924 32.2783V15.3245H27.7522V32.8056C27.7522 34.455 27.5249 35.9692 27.0701 37.3482C26.6153 38.7273 25.9198 39.917 24.9834 40.9175C24.0471 41.8909 22.8567 42.648 21.4121 43.1888C19.9675 43.7296 18.2554 44 16.2758 44Z" fill="url(#paint0_angular_87_1585)"/>
<path d="M42.1191 15C46.2656 15 49.449 15.7436 51.6694 17.2308C53.8898 18.6909 55 21.0974 55 24.4503C55 27.8303 53.8764 30.2774 51.6293 31.7916C49.3822 33.2788 46.172 34.0224 41.9987 34.0224H40.0325V43.4322H33.7726V15.7301C35.1369 15.4597 36.5815 15.2704 38.1064 15.1622C39.6312 15.0541 40.9688 15 42.1191 15ZM42.5204 20.3944C42.0656 20.3944 41.6108 20.4079 41.156 20.435C40.728 20.462 40.3535 20.489 40.0325 20.5161V28.628H41.9987C44.1656 28.628 45.7974 28.3305 46.8943 27.7357C47.9911 27.1408 48.5395 26.0322 48.5395 24.4098C48.5395 23.6256 48.3924 22.9767 48.0981 22.4629C47.8306 21.9492 47.4293 21.5436 46.8943 21.2462C46.386 20.9217 45.7573 20.7054 45.0083 20.5972C44.2592 20.462 43.4299 20.3944 42.5204 20.3944Z" fill="url(#paint1_angular_87_1585)"/>
<defs>
<radialGradient id="paint0_angular_87_1585" cx="0" cy="0" r="1" gradientUnits="userSpaceOnUse" gradientTransform="translate(29.7787 28.8561) rotate(90) scale(23.4484 27.5876)">
<stop stop-color="#F25F4C"/>
<stop offset="1" stop-color="#D9376E"/>
</radialGradient>
<radialGradient id="paint1_angular_87_1585" cx="0" cy="0" r="1" gradientUnits="userSpaceOnUse" gradientTransform="translate(29.7787 28.8561) rotate(90) scale(23.4484 27.5876)">
<stop stop-color="#F25F4C"/>
<stop offset="1" stop-color="#D9376E"/>
</radialGradient>
</defs>
</svg>
